<?xml version="1.0" encoding="iso-8859-1"?>
<!-- Uploaded to: SVG Repo, www.svgrepo.com, Generator: SVG Repo Mixer Tools -->
<svg height="800px" width="800px" version="1.1" id="Layer_1" xmlns="http://www.w3.org/2000/svg" xmlns:xlink="http://www.w3.org/1999/xlink" 
	 viewBox="0 0 496.158 496.158" xml:space="preserve">
<path style="fill:#FABC3D;" d="M0,248.085C0,111.062,111.07,0.003,248.076,0.003c137.012,0,248.082,111.059,248.082,248.082
	c0,137-111.07,248.07-248.082,248.07C111.07,496.155,0,385.085,0,248.085z"/>
<path style="fill:#686666;" d="M299.587,318.601c0-4.462,4.984-8.08,11.131-8.08h49.479c6.148,0,11.132,3.618,11.132,8.08v34.564
	c0,4.462-6.958,9.275-34.619,9.275c-27.662,0-37.123-4.812-37.123-9.275V318.601z"/>
<path style="fill:#494848;" d="M299.587,312.939c0-4.464,4.984-8.081,11.131-8.081h49.479c6.148,0,11.132,3.617,11.132,8.081v34.563
	c0,4.463-6.958,9.275-34.619,9.275c-27.662,0-37.123-4.812-37.123-9.275V312.939z"/>
<path style="fill:#686666;" d="M299.587,310.579c0-4.463,4.984-8.081,11.131-8.081h49.479c6.148,0,11.132,3.618,11.132,8.081v34.563
	c0,4.463-6.958,9.275-34.619,9.275c-27.662,0-37.123-4.812-37.123-9.275V310.579z"/>
<g>
	<path style="fill:#48A1AF;" d="M285.789,149.391l13.825,178.63c0.135,1.507,5.488,5.26,14.478,6.561
		c5.766,0.834,13.026,1.398,21.366,1.398s15.601-0.564,21.367-1.398c8.989-1.3,14.342-5.054,14.478-6.561l13.825-178.63
		L285.789,149.391L285.789,149.391z"/>
	<path style="fill:#48A1AF;" d="M285.789,149.391l13.825,178.63c0.221,2.473,71.467,2.473,71.688,0l13.825-178.63L285.789,149.391
		L285.789,149.391z"/>
</g>
<polygon style="fill:#439AA3;" points="284.767,133.718 285.789,149.402 385.127,149.402 386.149,133.718 "/>
<circle style="fill:#89DCE5;" cx="335.469" cy="197.599" r="34.21"/>
<path style="fill:#3A3431;" d="M326.138,191.235c0,0,1.679,9.184,8.226,10.43c0,0-2.182-6.539-2.016-9.029
	c0,0,7.051,3.269,9.232,9.808c0,0,0.84-3.581-0.335-9.029c0,0,3.526,1.868,3.191,8.095c0,0,2.685-1.09,2.853-4.67
	c0,0,2.182,3.425,1.176,7.006c0,0,0.501,0.778,1.509-0.934c0,0,4.069,2.005,3.838,8.561c0,0,4.254-5.404,2.938-10.897
	c0,0,1.205,2.958,1.038,4.982c0,0,1.083-4.515-0.092-9.808c0,0,1.511,1.247,2.014,2.958c0,0,1.847-3.581-2.854-6.695
	c0,0,2.351-0.467,2.687,0.623c0,0-1.175-5.76-4.702-7.317c0,0,1.511-0.467,3.527,1.557c0,0-0.84-4.359-5.877-5.76
	c0,0,1.008-0.468,2.686,0.312c0,0-1.342-2.803-5.539-3.737c0,0-0.335-1.401,1.51-1.245c0,0-3.692-1.712-7.216-1.869
	c0,0,1.174-2.49,3.188-2.49c0,0-4.868-1.401-8.226,0.468c0,0-1.846-0.779-0.671-1.402c0,0-9.065-0.311-9.568,4.515
	c0,0-2.518-0.155-4.7-1.245c0,0-2.184,1.556-0.167,3.425c0,0-5.204,0.156-7.555,3.893c0,0,1.174-0.467,2.686-0.312
	c0,0-4.028,2.023-4.533,5.448c0,0,1.175-0.467,2.519-0.312c0,0-2.35,1.401-3.357,4.204c0,0,1.007-0.312,2.518-0.467
	c0,0-5.206,4.047-5.206,9.807c0,0,2.017-3.112,3.192-3.112c0,0-0.671,4.981,0.671,10.585c0,0,0.838-2.647,1.678-2.492
	c0,0-0.168,4.36,2.518,7.317c0,0,0-10.12,1.846-10.275c0,0,1.007,1.401,2.182,2.335
	C322.948,204.466,320.766,192.168,326.138,191.235z"/>
<path style="fill:#494848;" d="M324.079,354.966c0-3.714,5.096-6.724,11.379-6.724c6.284,0,11.379,3.01,11.379,6.724H324.079z"/>
<path style="fill:#686666;" d="M265.599,236.644H112.624c-1.444,0-2.615,1.171-2.615,2.615v57.529c0,1.445,1.171,2.616,2.615,2.616
	h152.975c1.444,0,2.615-1.171,2.615-2.616v-57.529C268.214,237.815,267.043,236.644,265.599,236.644z"/>
<path style="fill:#48A1AF;" d="M110.009,262.085v93.52c0,1.138,0.735,2.145,1.82,2.491h154.564c1.085-0.346,1.82-1.353,1.82-2.491
	v-93.52H110.009z"/>
<circle style="fill:#89DCE5;" cx="189.109" cy="310.429" r="34.21"/>
<path style="fill:#3A3431;" d="M179.784,304.06c0,0,1.679,9.184,8.227,10.43c0,0-2.182-6.539-2.016-9.029
	c0,0,7.051,3.269,9.232,9.807c0,0,0.839-3.581-0.336-9.029c0,0,3.527,1.868,3.191,8.095c0,0,2.685-1.09,2.853-4.67
	c0,0,2.183,3.425,1.176,7.006c0,0,0.502,0.777,1.509-0.934c0,0,4.069,2.005,3.839,8.562c0,0,4.254-5.404,2.938-10.897
	c0,0,1.206,2.958,1.038,4.982c0,0,1.083-4.515-0.092-9.808c0,0,1.511,1.247,2.014,2.958c0,0,1.847-3.581-2.854-6.695
	c0,0,2.352-0.466,2.687,0.624c0,0-1.175-5.76-4.701-7.317c0,0,1.51-0.467,3.526,1.557c0,0-0.84-4.359-5.876-5.76
	c0,0,1.008-0.468,2.686,0.312c0,0-1.342-2.803-5.539-3.737c0,0-0.335-1.4,1.51-1.245c0,0-3.692-1.712-7.216-1.869
	c0,0,1.174-2.49,3.188-2.49c0,0-4.869-1.401-8.226,0.468c0,0-1.846-0.779-0.671-1.402c0,0-9.065-0.311-9.568,4.515
	c0,0-2.519-0.155-4.7-1.245c0,0-2.184,1.556-0.167,3.425c0,0-5.204,0.155-7.555,3.892c0,0,1.174-0.467,2.686-0.312
	c0,0-4.028,2.023-4.533,5.449c0,0,1.175-0.467,2.519-0.312c0,0-2.351,1.402-3.357,4.204c0,0,1.007-0.312,2.518-0.467
	c0,0-5.206,4.048-5.206,9.807c0,0,2.017-3.112,3.192-3.112c0,0-0.672,4.981,0.671,10.586c0,0,0.838-2.647,1.678-2.492
	c0,0-0.168,4.359,2.518,7.317c0,0,0-10.12,1.846-10.275c0,0,1.006,1.401,2.182,2.335
	C176.595,317.292,174.412,304.994,179.784,304.06z"/>
</svg>