<?xml version="1.0" encoding="iso-8859-1"?>
<!-- Uploaded to: SVG Repo, www.svgrepo.com, Generator: SVG Repo Mixer Tools -->
<svg height="800px" width="800px" version="1.1" id="Layer_1" xmlns="http://www.w3.org/2000/svg" xmlns:xlink="http://www.w3.org/1999/xlink" 
	 viewBox="0 0 496.158 496.158" xml:space="preserve">
<path style="fill:#25B7D3;" d="M0,248.085C0,111.062,111.07,0.003,248.076,0.003c137.012,0,248.082,111.059,248.082,248.082
	c0,137-111.07,248.07-248.082,248.07C111.07,496.155,0,385.085,0,248.085z"/>
<path style="fill:#494848;" d="M261.849,136.076c0,1.905-1.542,3.449-3.447,3.449h-29.357c-1.904,0-3.447-1.544-3.447-3.449v-29.179
	c0-1.905,1.543-3.449,3.447-3.449h29.357c1.905,0,3.447,1.544,3.447,3.449V136.076z"/>
<path style="fill:#999393;" d="M261.625,108.515c-4.971,0-9.003,4.03-9.003,9.002c0,4.972,4.032,9.002,9.003,9.002
	c0.076,0,0.149-0.008,0.224-0.011v-17.983C261.774,108.523,261.701,108.515,261.625,108.515z"/>
<g>
	<path style="fill:#EDEDED;" d="M270.984,113.397c-0.946,0-1.848-0.554-2.244-1.48c-0.53-1.239,0.043-2.674,1.281-3.205
		l78.325-14.648c1.239-0.531,2.674,0.042,3.205,1.283c0.531,1.239-0.043,2.674-1.283,3.206L271.945,113.2
		C271.632,113.334,271.307,113.397,270.984,113.397z"/>
	<path style="fill:#EDEDED;" d="M349.307,141.523c-0.32,0-0.647-0.064-0.96-0.198l-78.325-14.648
		c-1.238-0.531-1.812-1.966-1.281-3.205c0.53-1.24,1.963-1.814,3.205-1.283l78.323,14.647c1.24,0.531,1.814,1.966,1.283,3.206
		C351.155,140.969,350.255,141.523,349.307,141.523z"/>
	<path style="fill:#EDEDED;" d="M349.308,120.161h-78.323c-1.349,0-2.44-1.093-2.44-2.441s1.092-2.441,2.44-2.441h78.323
		c1.349,0,2.441,1.093,2.441,2.441S350.656,120.161,349.308,120.161z"/>
</g>
<path style="fill:#6B6B6B;" d="M261.625,112.991c-2.499,0-4.525,2.026-4.525,4.526s2.026,4.526,4.525,4.526
	c0.077,0,0.149-0.019,0.224-0.023v-9.007C261.774,113.01,261.702,112.991,261.625,112.991z"/>
<path style="fill:#E0DEDE;" d="M261.794,131.331h-36.178l-30.296,21.458c0,0,14.094,13.44,48.402,13.44
	c34.31,0,48.402-13.44,48.402-13.44L261.794,131.331z"/>
<path style="fill:#686666;" d="M303.443,384.655V171.181c0-13.841-11.318-18.392-11.318-18.392
	c-16.284,5.428-32.298,7.095-48.9,7.095s-31.62-1.667-47.904-7.095c0,0-11.318,3.737-11.318,18.392v213.474
	c0,0-5.056,24.071,54.361,26.652v0.229c1.842,0,3.62-0.022,5.359-0.058c1.739,0.036,3.519,0.058,5.359,0.058v-0.229
	C308.5,408.726,303.443,384.655,303.443,384.655z"/>
<path style="fill:#494848;" d="M238.363,411.308v0.229c1.842,0,3.62-0.022,5.359-0.058c1.739,0.036,3.519,0.058,5.359,0.058v-0.229
	c59.418-2.581,54.361-26.652,54.361-26.652V263.899c0,0-17.608,11.843-60.331,11.843s-59.11-11.843-59.11-11.843v120.756
	C184.002,384.655,178.946,408.726,238.363,411.308z"/>
</svg>